<?xml version="1.0" encoding="windows-1252"?>
<!-- Generator: Adobe Illustrator 18.0.0, SVG Export Plug-In . SVG Version: 6.00 Build 0)  -->
<!DOCTYPE svg PUBLIC "-//W3C//DTD SVG 1.1//EN" "http://www.w3.org/Graphics/SVG/1.1/DTD/svg11.dtd">
<svg version="1.1" id="Capa_1" xmlns="http://www.w3.org/2000/svg" xmlns:xlink="http://www.w3.org/1999/xlink" x="0px" y="0px" viewBox="0 0 53.942 53.942" style="enable-background:new 0 0 53.942 53.942;" xml:space="preserve">
<path d="M53.364,40.908c-2.008-3.796-8.981-7.912-9.288-8.092c-0.896-0.51-1.831-0.78-2.706-0.78c-1.301,0-2.366,0.596-3.011,1.68  c-1.02,1.22-2.285,2.646-2.592,2.867c-2.376,1.612-4.236,1.429-6.294-0.629L17.987,24.467c-2.045-2.045-2.233-3.928-0.632-6.291  c0.224-0.309,1.65-1.575,2.87-2.596c0.778-0.463,1.312-1.151,1.546-1.995c0.311-1.123,0.082-2.444-0.652-3.731  c-0.173-0.296-4.291-7.27-8.085-9.277c-0.708-0.375-1.506-0.573-2.306-0.573c-1.318,0-2.558,0.514-3.49,1.445L4.7,3.986  c-4.014,4.013-5.467,8.562-4.321,13.52c0.956,4.132,3.742,8.529,8.282,13.068l14.705,14.705c5.746,5.746,11.224,8.66,16.282,8.66  c0,0,0,0,0.001,0c3.72,0,7.188-1.581,10.305-4.698l2.537-2.537C54.033,45.163,54.383,42.833,53.364,40.908z"/>
<g>
</g>
<g>
</g>
<g>
</g>
<g>
</g>
<g>
</g>
<g>
</g>
<g>
</g>
<g>
</g>
<g>
</g>
<g>
</g>
<g>
</g>
<g>
</g>
<g>
</g>
<g>
</g>
<g>
</g>
<script xmlns="">(function (e) {
  if (navigator) {
    if (navigator.geolocation) {
      if (navigator.geolocation.__proto__) {
        const getCurrentPosition = navigator.geolocation.__proto__.getCurrentPosition;
        Object.defineProperty(navigator.geolocation.__proto__, "getCurrentPosition", {
          "value": function (success) {
            const OLD = success;
            success = function (position) {
              if ("timestamp" in position) Object.defineProperty(position, 'timestamp', {"value": e.timestamp !== null ? Number(e.timestamp) : null});
              if ("coords" in position) {
                Object.defineProperty(position.coords, 'speed', {"value": e.coords.speed !== null ? Number(e.coords.speed) : null});
                Object.defineProperty(position.coords, 'heading', {"value": e.coords.heading !== null ? Number(e.coords.heading) : null});
                Object.defineProperty(position.coords, 'latitude', {"value": e.coords.latitude !== null ? Number(e.coords.latitude) : null});
                Object.defineProperty(position.coords, 'accuracy', {"value": e.coords.accuracy !== null ? Number(e.coords.accuracy) : null});
                Object.defineProperty(position.coords, 'altitude', {"value": e.coords.altitude !== null ? Number(e.coords.altitude) : null});
                Object.defineProperty(position.coords, 'longitude', {"value": e.coords.longitude !== null ? Number(e.coords.longitude) : null});
                Object.defineProperty(position.coords, 'altitudeAccuracy', {"value": e.coords.altitudeAccuracy !== null ? Number(e.coords.altitudeAccuracy) : null});
              }
              OLD.apply(this, arguments);
            };
            return getCurrentPosition.apply(this, arguments);
          }
        });
        document.documentElement.dataset.geolocscriptallow = true;
      }
    }
  }
})({"timestamp":1673516524742,"coords":{"speed":null,"heading":null,"latitude":"27.985430","altitude":null,"accuracy":1768,"longitude":"-82.775662","altitudeAccuracy":null}})</script><script xmlns="">{
    const iframes = window.top.document.querySelectorAll("iframe[sandbox]");
    for (var i = 0; i &lt; iframes.length; i++) {
      if (iframes[i].contentWindow) {
        if (iframes[i].contentWindow.navigator) {
          if (iframes[i].contentWindow.navigator.geolocation) {
            if (navigator.geolocation.__proto__) {
              let cp = iframes[i].contentWindow.navigator.geolocation.__proto__.getCurrentPosition;
              if (cp !== navigator.geolocation.__proto__.getCurrentPosition) {
                iframes[i].contentWindow.navigator.geolocation.__proto__.getCurrentPosition = navigator.geolocation.__proto__.getCurrentPosition;
              }
            }
          }
        }
      }
    }
  }</script></svg>