<svg xmlns="http://www.w3.org/2000/svg" width="85" height="178" viewBox="0 0 85 178" fill="none"><path d="M0.220772 93.0892C0.378365 92.9773 0.607239 92.9418 0.785461 92.9934C1.00309 93.051 1.20258 93.101 1.39082 93.1483L1.48275 93.1714C1.94676 93.2881 2.3476 93.3881 2.74471 93.5253C9.01829 95.6687 13.9574 99.341 17.8446 104.751C18.8045 106.088 19.5481 107.478 20.1403 108.864C19.1691 104.202 18.9439 102.386 18.772 97.1707C18.7638 96.9518 18.7638 96.7292 18.7638 96.5082C18.7638 95.9048 18.7638 95.3348 18.6106 94.8148C18.4268 94.1985 18.0572 93.5839 17.6995 92.9891C17.5988 92.8208 17.4981 92.6525 17.415 92.5046C17.3862 92.4756 17.293 92.4267 17.2568 92.4218C15.4626 92.1863 13.8761 91.5313 12.4052 90.4198C10.9231 89.2943 9.70432 87.9165 8.78191 86.3237C5.47127 80.615 3.8147 74.305 3.8566 67.5713C3.86035 66.9217 3.94914 66.2893 4.0467 65.6015C4.09109 65.2934 4.13612 64.9782 4.17365 64.6518C4.19491 64.4728 4.32311 64.3136 4.50884 64.2362C4.69208 64.1598 4.91344 64.1652 5.09855 64.2614C5.21049 64.3217 5.30617 64.3706 5.3931 64.4141C5.56132 64.5002 5.68951 64.5674 5.81084 64.6427C8.63495 66.3834 11.1257 68.5505 13.2151 71.0823C16.6245 75.2203 18.6075 79.8992 19.1416 85.0466C19.1947 84.4728 19.2485 83.899 19.3023 83.3252L19.3211 83.1171C19.5305 80.8677 19.7469 78.5414 19.9233 76.2538C19.9677 75.6746 20.0971 75.1111 20.2222 74.5658C20.4636 73.5177 20.6918 72.5277 20.3266 71.4904C20.2435 71.2559 20.1734 71.0199 20.1034 70.7843C19.9308 70.2009 19.0972 69.3023 17.8171 68.3198L17.7689 68.2827C17.2968 67.9386 14.8716 66.0306 13.4958 62.2567C12.0994 58.4225 12.2051 54.4163 12.282 51.4909L12.2839 51.4129C12.3865 47.3916 12.8918 44.3614 13.9223 41.5861C14.0555 41.2312 14.2137 40.8811 14.3813 40.5133C14.4683 40.3218 14.5571 40.1239 14.6484 39.9169C14.7234 39.7416 14.9035 39.6142 15.1143 39.584L15.2175 39.576C15.4001 39.576 15.5708 39.6464 15.6865 39.768L16.6877 40.8171C21.4879 45.8515 23.8461 51.756 23.6986 58.3671C23.6729 59.5314 23.5716 60.7257 23.3921 61.9588C24.6122 58.3381 26.043 54.8137 27.6702 51.4232C27.704 51.349 27.7258 51.257 27.7284 51.179L27.7396 50.7155C27.7565 50.0465 27.774 49.3544 27.7409 48.6736C27.7358 48.5607 27.6508 48.358 27.4738 48.1585C27.2224 47.8729 26.9435 47.5938 26.6546 47.3035C26.1625 46.8109 25.654 46.3022 25.2513 45.7214C23.9543 43.8532 23.3452 41.6463 23.3352 38.7753C23.3177 35.3955 23.9237 31.8388 25.2444 27.5815C25.9661 25.2589 27.0555 22.2416 29.0841 19.5061C29.2217 19.3221 29.3755 19.149 29.5394 18.9656C29.6132 18.8844 29.6907 18.7978 29.7695 18.7048C29.8846 18.572 30.0434 18.4945 30.2998 18.4945C30.5043 18.5075 30.6869 18.6075 30.7888 18.7629C33.3353 22.7148 34.6035 26.9367 34.6636 31.67C34.7148 35.6165 33.9982 39.0124 33.0995 41.6963C35.3865 38.1036 37.9279 34.6324 40.6826 31.3398L40.7458 31.265C40.8083 31.1935 40.8346 31.1586 40.8302 31.1833C41.0034 30.118 41.1235 29.2657 41.2067 28.5236C41.2048 28.5123 41.1885 28.4499 41.0597 28.2649C40.8777 27.9982 40.6782 27.7369 40.4662 27.4605C40.041 26.9044 39.602 26.329 39.3206 25.6848C38.4714 23.7403 38.2806 21.535 38.739 18.9452C39.7452 13.2133 42.6838 8.05196 47.7204 3.16542C48.2388 2.6637 48.8116 2.22006 49.4176 1.75114L49.5852 1.62046C49.8222 1.43602 50.0655 1.24727 50.3112 1.04776C50.4676 0.919775 50.6915 0.871916 50.9085 0.926767C51.1136 0.982693 51.2718 1.12896 51.3206 1.31072L51.4306 1.72586C51.5057 2.00119 51.5638 2.21844 51.607 2.43677C52.2849 5.91602 52.2355 9.64263 51.455 13.8306C50.6808 17.9842 49.1381 21.5667 46.7711 24.6787C50.3206 21.0822 53.7732 18.0622 57.3815 15.3858C57.3978 15.3675 57.4216 15.3121 57.4234 15.2982C57.1414 13.209 57.7405 11.2408 59.2563 9.28126C61.2469 6.70597 64.0128 4.74318 67.4773 3.44828C69.5503 2.67499 71.6985 1.99044 73.8015 1.31986C74.809 0.998287 75.8164 0.677788 76.8539 0.334165C77.8964 -0.0223638 78.3423 -0.0858186 78.5843 0.106696C78.8957 0.356212 78.8206 0.569163 78.6849 0.956343L78.6412 1.08271C77.3698 4.76523 75.6826 7.67769 73.482 9.98625C69.4422 14.2286 64.7176 16.3839 59.0456 16.5742C58.8467 16.5845 58.6892 16.6318 58.6248 16.6748C57.8262 17.1889 57.2383 17.6003 56.7187 18.0079C55.0752 19.2996 53.4568 20.6757 51.8734 22.1249C54.2285 20.8666 57.107 20.2987 60.3489 20.4396C62.123 20.5165 63.884 20.7402 65.5868 20.9564L65.6519 20.965C66.1553 21.0284 66.6562 21.0913 67.1559 21.1521C68.2502 21.2796 69.3534 21.4463 70.3277 21.5925C70.7223 21.6533 71.6647 21.8377 71.8817 22.2308C71.9567 22.3653 71.9505 22.5126 71.8654 22.6465C71.7904 22.7632 71.7078 22.8729 71.6178 22.9729C68.8055 26.1107 65.5975 28.1773 61.8103 29.2899C57.1927 30.6536 52.9515 30.5412 49.1406 28.9371C48.5577 28.6613 47.8548 28.5214 47.0519 28.5214C46.4459 28.5214 45.9913 28.6037 45.8406 28.6333C45.6148 28.6656 45.3084 28.7742 45.2459 28.8441C42.8757 31.5237 40.6263 34.3856 38.5258 37.3922C40.3005 35.908 42.615 34.9072 45.768 34.2555C48.5315 33.6892 51.3568 33.5677 54.0884 33.4494L55.0033 33.4096C55.86 33.372 56.7168 33.3252 57.5992 33.2773L59.0787 33.1988C59.2701 33.1988 59.4521 33.2784 59.5634 33.4107C59.6866 33.5532 59.716 33.7382 59.6435 33.9043C59.584 34.0431 59.4758 34.2877 59.4202 34.3695C56.5392 38.5134 53.156 41.3796 49.0787 43.1327C45.0926 44.8449 41.4912 45.2976 37.8585 44.5507C37.4383 44.4636 36.9511 44.4174 36.4477 44.4174C34.9024 44.4174 33.825 44.8228 33.5986 45.1982C31.5999 48.7436 29.8164 52.4277 28.278 56.1855C29.8915 54.2727 32.1477 52.7191 35.0044 51.5571C37.8422 50.4052 40.7971 49.3523 43.7043 48.316C44.9538 47.8719 46.2083 47.4261 47.4571 46.9701C47.6429 46.9001 47.8623 46.9147 48.0356 47.0131C48.2057 47.1104 48.307 47.2728 48.307 47.4476C48.307 47.7831 44.1608 57.6783 38.1393 61.5775C35.6829 63.1682 32.6574 64.8046 28.8421 64.8815C27.7002 64.9014 26.5195 65.0401 25.6278 65.9118C25.4914 66.0505 25.3107 66.1586 25.1137 66.2161C24.8092 66.3022 24.7254 66.4624 24.5753 67.0088C23.3396 71.47 22.4397 76.0683 21.8856 80.7376C22.0532 80.2638 22.2477 79.7852 22.471 79.3007C23.8186 76.3619 26.0868 73.7904 29.6088 71.2076C31.4242 69.8707 33.3253 68.5763 35.1638 67.3239L35.2514 67.2648C36.0887 66.6942 36.9242 66.1258 37.7572 65.5504C37.9292 65.4316 38.0968 65.309 38.2913 65.1659L38.8109 64.783C38.9929 64.6508 39.2637 64.6233 39.4763 64.7148C39.6945 64.8099 39.8252 65.0067 39.8084 65.217C39.7827 65.5327 39.7621 65.8311 39.7427 66.1177L39.7327 66.2516C39.6914 66.8416 39.6527 67.3981 39.5832 67.9477C38.9316 73.2989 37.0812 77.7665 33.9263 81.6055C31.9733 83.9786 29.1717 86.8792 24.8029 88.251C23.7398 88.5866 22.9688 89.0947 22.1427 90.0068C21.3635 90.8607 21.2184 91.641 21.2359 92.6229C21.3103 96.7362 21.6511 100.817 22.2521 104.813C22.3928 103.701 22.6905 102.556 23.1476 101.366C24.0938 98.9033 25.5684 96.5087 27.6564 94.0458C29.4587 91.9131 31.3342 89.7729 33.1477 87.702L33.2684 87.5638C33.9875 86.7437 34.7061 85.9226 35.4059 85.1192C35.5372 84.9541 35.7267 84.8949 35.8361 84.8621C35.9912 84.7971 36.1763 84.7906 36.3408 84.8508C36.5021 84.91 36.6259 85.0267 36.6803 85.1697L36.7016 85.2256C36.7316 85.3009 36.7554 85.3676 36.7679 85.4343C38.0186 91.8475 37.2513 97.5934 34.4228 103.002C33.0414 105.647 31.1884 108.641 27.9216 110.795C26.4301 111.779 25.2526 113.159 24.6059 114.68C24.469 115.007 24.474 115.149 24.4896 115.204C25.8723 120.129 27.6783 124.879 29.874 129.374C29.3086 127.005 29.3474 124.516 29.9928 121.938C30.9089 118.283 32.4836 114.742 33.8881 111.709L34.309 110.801C34.9675 109.379 35.6304 107.947 36.3151 106.462C36.402 106.272 36.6116 106.143 36.8911 106.131C37.1112 106.131 37.3138 106.239 37.4189 106.414L37.6396 106.771C37.7366 106.928 37.8272 107.073 37.9048 107.224C40.7301 112.706 41.6844 118.325 40.7395 123.926C40.0641 127.932 38.9197 130.799 37.0286 133.226C36.05 134.48 35.1201 135.877 34.9512 137.595C34.9112 138.002 34.93 138.282 35.1407 138.601C37.5258 142.192 40.1999 145.582 43.1284 148.731C43.1171 148.714 43.1065 148.696 43.0952 148.679C40.9884 145.368 40.9246 141.788 41.1398 138.723C41.3255 136.095 41.6757 133.47 42.0127 130.933L42.0321 130.787C42.1678 129.77 42.3029 128.754 42.4261 127.736C42.4974 127.159 42.5768 126.582 42.6588 125.997L42.7669 125.204C42.7907 125.029 42.9151 124.877 43.094 124.801C43.4267 124.651 43.9651 124.882 44.5467 125.474C48.5434 129.538 51.0235 134.132 51.919 139.127C52.8477 144.306 52.3443 148.738 50.3782 152.677C50.3256 152.782 50.3269 152.996 50.3275 153.067L50.4332 155.333C50.4488 155.496 50.5489 155.68 50.6314 155.748C54.6225 159.053 59.0162 161.927 63.7314 164.318C61.4995 162.583 59.8948 160.32 58.8549 157.451C57.7023 154.272 57.1108 150.964 56.5373 147.755L56.4873 147.47C56.284 146.343 56.072 145.218 55.8557 144.068L55.6112 142.768C55.5761 142.579 55.6631 142.39 55.8338 142.276C56.0032 142.16 56.2484 142.132 56.4435 142.204L56.6567 142.28C56.8844 142.36 57.0826 142.432 57.2696 142.514C66.1834 146.342 72.0512 155.271 71.2219 163.744C71.0919 165.071 71.2332 166.317 71.6547 167.552C71.6941 167.664 71.8204 167.787 71.8717 167.807C76.1053 169.342 80.1308 170.462 84.1812 171.231C84.3894 171.273 84.5546 171.401 84.6221 171.573C84.6903 171.747 84.649 171.936 84.5101 172.078C84.0699 172.526 83.6866 173.009 83.3714 173.514C83.2419 173.72 82.9336 173.826 82.7029 173.774C79.4029 173.127 76.1892 172.289 73.148 171.281C72.9023 171.196 72.7147 171.156 72.5389 171.18C71.8623 171.258 71.1475 171.377 70.3539 171.546C70.1901 171.581 70.0544 171.646 70.0519 171.64C68.3184 174.612 65.3392 176.505 60.9411 177.426C59.9843 177.623 58.9974 177.769 58.0081 177.858C56.9725 177.952 55.8175 178 54.5762 178C52.8565 178 51.6301 177.909 51.6151 177.908C47.8029 177.541 44.5473 176.803 41.6638 175.652C40.4806 175.18 39.1324 174.545 38.0961 173.411C37.8979 173.194 37.931 172.88 38.1718 172.698C41.101 170.475 44.0833 168.86 47.2908 167.761C52.0429 166.137 56.3716 165.697 60.6146 166.399C61.2487 166.505 61.8678 166.638 62.4694 166.792C58.5003 164.751 54.7 162.354 51.1111 159.622C51.0423 159.568 50.9291 159.521 50.8409 159.507C50.2537 159.423 49.4739 159.32 48.6759 159.271C48.6021 159.271 48.5083 159.301 48.4977 159.305C46.3352 161.386 43.5492 162.397 39.9803 162.397C39.7984 162.397 39.6158 162.394 39.4338 162.389C35.5534 162.281 31.6525 161.364 27.8372 159.662C25.0643 158.418 22.1739 156.97 19.8301 154.811C19.3104 154.33 18.8464 153.787 18.4368 153.308L18.3968 153.261C18.2154 153.05 18.0322 152.837 17.844 152.627C17.7414 152.513 17.6982 152.367 17.7251 152.22C17.7539 152.078 17.8496 151.951 18.0128 151.86C18.0541 151.841 19.0465 151.383 19.9527 151.081C26.0199 149.065 32.1452 148.859 37.9886 150.478C39.9015 151.007 41.7019 151.8 43.4548 152.897C40.213 149.657 37.2113 146.104 34.486 142.282C34.4566 142.242 34.379 142.133 34.354 142.113C34.1157 141.982 33.8719 141.858 33.6286 141.736C33.1927 141.516 32.7412 141.289 32.3172 141.018C31.9595 140.788 31.8588 140.782 31.4974 140.982C30.9858 141.268 30.3911 141.416 29.8727 141.533C26.8397 142.201 23.7823 141.868 20.4004 140.503C17.3111 139.257 14.936 137.289 12.8286 135.347C9.76308 132.515 7.76006 129.961 6.52436 127.306C6.26484 126.749 6.07974 126.173 5.88713 125.571C5.80772 125.318 5.7264 125.065 5.64011 124.817C5.54568 124.55 5.71077 124.268 6.0172 124.175L6.2711 124.158C7.52118 124.158 18.6726 124.316 25.195 129.758C26.614 130.942 27.8859 132.2 29.0472 133.578C26.467 128.879 24.2789 123.927 22.5154 118.787L22.4897 118.711C22.4685 118.648 22.4366 118.553 22.4153 118.527L20.7093 116.513C20.6456 116.432 20.638 116.432 20.538 116.432C20.4936 116.432 20.4448 116.435 20.3892 116.438L20.0246 116.457C18.7551 116.524 18.0078 116.515 17.3931 116.432C14.9642 116.102 12.7717 115.05 10.6911 113.216C5.82521 108.924 2.47581 103.57 0.452156 96.8497C0.235153 96.1296 0.174492 95.4026 0.109459 94.6314C0.0806885 94.2819 0.0488052 93.9216 0.00252533 93.5495C-0.016861 93.3709 0.0644379 93.2005 0.220772 93.0892Z" fill="#092142"></path></svg>