<svg xmlns="http://www.w3.org/2000/svg" width="375" height="37" viewBox="0 0 375 37" fill="none"><path d="M55.7699 29V8.63636H69.2528V12.1861H60.0753V17.0384H68.358V20.5881H60.0753V29H55.7699ZM72.1488 29V8.63636H76.4542V25.4503H85.1843V29H72.1488ZM92.3409 8.63636V29H88.0355V8.63636H92.3409ZM109.386 15.2188C109.247 14.7348 109.051 14.3073 108.799 13.9361C108.547 13.5582 108.239 13.2401 107.875 12.9815C107.517 12.7164 107.106 12.5142 106.642 12.375C106.184 12.2358 105.677 12.1662 105.12 12.1662C104.08 12.1662 103.165 12.4247 102.376 12.9418C101.594 13.4588 100.984 14.2112 100.547 15.1989C100.109 16.1799 99.8903 17.3797 99.8903 18.7983C99.8903 20.2169 100.106 21.4233 100.537 22.4176C100.967 23.4119 101.577 24.1709 102.366 24.6946C103.155 25.2116 104.086 25.4702 105.16 25.4702C106.135 25.4702 106.967 25.2978 107.656 24.9531C108.352 24.6018 108.882 24.108 109.247 23.4716C109.618 22.8352 109.804 22.0829 109.804 21.2145L110.679 21.3438H105.429V18.1023H113.95V20.6676C113.95 22.4574 113.572 23.9953 112.816 25.2812C112.061 26.5606 111.02 27.5483 109.694 28.2443C108.368 28.9337 106.85 29.2784 105.14 29.2784C103.231 29.2784 101.554 28.8575 100.109 28.0156C98.6639 27.1671 97.5371 25.964 96.7283 24.4062C95.9263 22.8419 95.5252 20.9858 95.5252 18.8381C95.5252 17.1875 95.7638 15.7159 96.2411 14.4233C96.725 13.1241 97.4012 12.0237 98.2695 11.1222C99.1379 10.2206 100.149 9.53456 101.302 9.06392C102.456 8.59328 103.705 8.35795 105.051 8.35795C106.204 8.35795 107.278 8.52699 108.272 8.86506C109.267 9.1965 110.148 9.66714 110.917 10.277C111.693 10.8868 112.326 11.6127 112.816 12.4545C113.307 13.2898 113.622 14.2112 113.761 15.2188H109.386ZM117.184 29V8.63636H121.489V17.0384H130.229V8.63636H134.525V29H130.229V20.5881H121.489V29H117.184ZM137.299 12.1861V8.63636H154.023V12.1861H147.789V29H143.533V12.1861H137.299ZM163.258 29V8.63636H171.292C172.83 8.63636 174.143 8.91146 175.23 9.46165C176.324 10.0052 177.155 10.7775 177.725 11.7784C178.302 12.7727 178.591 13.9427 178.591 15.2884C178.591 16.6406 178.299 17.804 177.716 18.7784C177.132 19.7462 176.287 20.4886 175.18 21.0057C174.08 21.5227 172.747 21.7812 171.183 21.7812H165.804V18.321H170.487C171.309 18.321 171.992 18.2083 172.535 17.983C173.079 17.7576 173.483 17.4195 173.748 16.9688C174.02 16.518 174.156 15.9579 174.156 15.2884C174.156 14.6122 174.02 14.0421 173.748 13.5781C173.483 13.1141 173.075 12.7628 172.525 12.5241C171.982 12.2789 171.296 12.1562 170.467 12.1562H167.564V29H163.258ZM174.255 19.733L179.316 29H174.564L169.612 19.733H174.255ZM181.633 29V8.63636H195.355V12.1861H185.939V17.0384H194.649V20.5881H185.939V25.4503H195.395V29H181.633ZM209.825 14.4929C209.745 13.6908 209.404 13.0677 208.8 12.6236C208.197 12.1794 207.379 11.9574 206.344 11.9574C205.642 11.9574 205.049 12.0568 204.565 12.2557C204.081 12.4479 203.71 12.7164 203.451 13.0611C203.199 13.4058 203.073 13.7969 203.073 14.2344C203.06 14.599 203.136 14.9171 203.302 15.1889C203.474 15.4607 203.71 15.696 204.008 15.8949C204.306 16.0871 204.651 16.2562 205.042 16.402C205.433 16.5412 205.851 16.6605 206.295 16.7599L208.124 17.1974C209.013 17.3963 209.828 17.6615 210.57 17.9929C211.313 18.3243 211.956 18.732 212.499 19.2159C213.043 19.6998 213.464 20.2699 213.762 20.9261C214.067 21.5824 214.223 22.3348 214.229 23.1832C214.223 24.4295 213.905 25.5099 213.275 26.4247C212.652 27.3329 211.75 28.0388 210.57 28.5426C209.397 29.0398 207.982 29.2884 206.325 29.2884C204.681 29.2884 203.249 29.0365 202.029 28.5327C200.816 28.0289 199.868 27.2831 199.185 26.2955C198.509 25.3011 198.155 24.0715 198.121 22.6065H202.288C202.334 23.2893 202.53 23.8594 202.874 24.3168C203.226 24.7675 203.693 25.1089 204.276 25.3409C204.866 25.5663 205.532 25.679 206.275 25.679C207.004 25.679 207.637 25.5729 208.174 25.3608C208.718 25.1487 209.138 24.8537 209.437 24.4759C209.735 24.098 209.884 23.6638 209.884 23.1733C209.884 22.7159 209.748 22.3314 209.477 22.0199C209.211 21.7083 208.82 21.4432 208.303 21.2244C207.793 21.0057 207.166 20.8068 206.424 20.6278L204.207 20.071C202.49 19.6534 201.134 19.0005 200.14 18.1122C199.146 17.224 198.652 16.0275 198.658 14.5227C198.652 13.2898 198.98 12.2126 199.643 11.2912C200.312 10.3698 201.23 9.65057 202.397 9.13352C203.564 8.61648 204.889 8.35795 206.374 8.35795C207.886 8.35795 209.205 8.61648 210.332 9.13352C211.465 9.65057 212.347 10.3698 212.977 11.2912C213.606 12.2126 213.931 13.2798 213.951 14.4929H209.825ZM217.125 29V8.63636H230.847V12.1861H221.431V17.0384H230.141V20.5881H221.431V25.4503H230.887V29H217.125ZM234.27 29V8.63636H242.304C243.842 8.63636 245.154 8.91146 246.241 9.46165C247.335 10.0052 248.167 10.7775 248.737 11.7784C249.314 12.7727 249.602 13.9427 249.602 15.2884C249.602 16.6406 249.311 17.804 248.727 18.7784C248.144 19.7462 247.299 20.4886 246.192 21.0057C245.091 21.5227 243.759 21.7812 242.195 21.7812H236.815V18.321H241.499C242.321 18.321 243.003 18.2083 243.547 17.983C244.09 17.7576 244.495 17.4195 244.76 16.9688C245.032 16.518 245.168 15.9579 245.168 15.2884C245.168 14.6122 245.032 14.0421 244.76 13.5781C244.495 13.1141 244.087 12.7628 243.537 12.5241C242.993 12.2789 242.307 12.1562 241.479 12.1562H238.575V29H234.27ZM245.267 19.733L250.328 29H245.575L240.624 19.733H245.267ZM255.777 8.63636L260.699 24.108H260.888L265.82 8.63636H270.592L263.572 29H258.024L250.994 8.63636H255.777ZM273.846 29H269.233L276.262 8.63636H281.811L288.831 29H284.217L279.116 13.2898H278.957L273.846 29ZM273.558 20.9957H284.456V24.3565H273.558V20.9957ZM288.018 12.1861V8.63636H304.742V12.1861H298.508V29H294.252V12.1861H288.018ZM311.802 8.63636V29H307.496V8.63636H311.802ZM334.057 18.8182C334.057 21.0388 333.636 22.928 332.794 24.4858C331.959 26.0436 330.819 27.2334 329.374 28.0554C327.935 28.8707 326.318 29.2784 324.522 29.2784C322.712 29.2784 321.088 28.8674 319.65 28.0455C318.211 27.2235 317.074 26.0336 316.239 24.4759C315.404 22.9181 314.986 21.0322 314.986 18.8182C314.986 16.5975 315.404 14.7083 316.239 13.1506C317.074 11.5928 318.211 10.4062 319.65 9.59091C321.088 8.76894 322.712 8.35795 324.522 8.35795C326.318 8.35795 327.935 8.76894 329.374 9.59091C330.819 10.4062 331.959 11.5928 332.794 13.1506C333.636 14.7083 334.057 16.5975 334.057 18.8182ZM329.692 18.8182C329.692 17.3797 329.477 16.1667 329.046 15.179C328.622 14.1913 328.022 13.4422 327.246 12.9318C326.471 12.4214 325.562 12.1662 324.522 12.1662C323.481 12.1662 322.573 12.4214 321.797 12.9318C321.022 13.4422 320.418 14.1913 319.988 15.179C319.563 16.1667 319.351 17.3797 319.351 18.8182C319.351 20.2566 319.563 21.4697 319.988 22.4574C320.418 23.4451 321.022 24.1941 321.797 24.7045C322.573 25.215 323.481 25.4702 324.522 25.4702C325.562 25.4702 326.471 25.215 327.246 24.7045C328.022 24.1941 328.622 23.4451 329.046 22.4574C329.477 21.4697 329.692 20.2566 329.692 18.8182ZM354.279 8.63636V29H350.56L341.701 16.1832H341.552V29H337.246V8.63636H341.025L349.815 21.4432H349.994V8.63636H354.279ZM368.883 14.4929C368.804 13.6908 368.462 13.0677 367.859 12.6236C367.256 12.1794 366.437 11.9574 365.403 11.9574C364.7 11.9574 364.107 12.0568 363.623 12.2557C363.139 12.4479 362.768 12.7164 362.51 13.0611C362.258 13.4058 362.132 13.7969 362.132 14.2344C362.118 14.599 362.195 14.9171 362.36 15.1889C362.533 15.4607 362.768 15.696 363.066 15.8949C363.365 16.0871 363.709 16.2562 364.1 16.402C364.492 16.5412 364.909 16.6605 365.353 16.7599L367.183 17.1974C368.071 17.3963 368.886 17.6615 369.629 17.9929C370.371 18.3243 371.014 18.732 371.558 19.2159C372.101 19.6998 372.522 20.2699 372.821 20.9261C373.126 21.5824 373.281 22.3348 373.288 23.1832C373.281 24.4295 372.963 25.5099 372.333 26.4247C371.71 27.3329 370.809 28.0388 369.629 28.5426C368.456 29.0398 367.04 29.2884 365.383 29.2884C363.739 29.2884 362.307 29.0365 361.088 28.5327C359.875 28.0289 358.927 27.2831 358.244 26.2955C357.568 25.3011 357.213 24.0715 357.18 22.6065H361.346C361.393 23.2893 361.588 23.8594 361.933 24.3168C362.284 24.7675 362.752 25.1089 363.335 25.3409C363.925 25.5663 364.591 25.679 365.333 25.679C366.063 25.679 366.696 25.5729 367.233 25.3608C367.776 25.1487 368.197 24.8537 368.495 24.4759C368.794 24.098 368.943 23.6638 368.943 23.1733C368.943 22.7159 368.807 22.3314 368.535 22.0199C368.27 21.7083 367.879 21.4432 367.362 21.2244C366.851 21.0057 366.225 20.8068 365.483 20.6278L363.265 20.071C361.548 19.6534 360.193 19.0005 359.199 18.1122C358.204 17.224 357.71 16.0275 357.717 14.5227C357.71 13.2898 358.038 12.2126 358.701 11.2912C359.371 10.3698 360.289 9.65057 361.456 9.13352C362.622 8.61648 363.948 8.35795 365.433 8.35795C366.944 8.35795 368.263 8.61648 369.39 9.13352C370.524 9.65057 371.405 10.3698 372.035 11.2912C372.665 12.2126 372.99 13.2798 373.01 14.4929H368.883Z" fill="white"></path><path d="M20.8214 0L41.6429 30.6429L20.8214 26.2019L0 30.6429L20.8214 0Z" fill="#CE343B"></path><path d="M20.8214 28.2856L41.6429 32.116L20.8214 32.9999L0 32.116L20.8214 28.2856Z" fill="white"></path></svg>