<svg xmlns="http://www.w3.org/2000/svg" width="74" height="178" viewBox="0 0 74 178" fill="none"><path d="M73.1539 93.0892C73.0173 92.9773 72.819 92.9418 72.6646 92.9934C72.4761 93.051 72.3032 93.101 72.1401 93.1483L72.0605 93.1714C71.6585 93.2881 71.3112 93.3881 70.9671 93.5253C65.5316 95.6687 61.2524 99.341 57.8845 104.751C57.0528 106.088 56.4086 107.478 55.8955 108.864C56.7369 104.202 56.932 102.386 57.081 97.1707C57.088 96.9518 57.088 96.7292 57.088 96.5082C57.088 95.9048 57.088 95.3348 57.2207 94.8148C57.38 94.1985 57.7003 93.5839 58.0102 92.9891C58.0974 92.8208 58.1846 92.6525 58.2567 92.5046C58.2816 92.4756 58.3623 92.4267 58.3938 92.4218C59.9482 92.1863 61.3228 91.5313 62.5972 90.4198C63.8813 89.2943 64.9373 87.9165 65.7364 86.3237C68.6048 80.615 70.0401 74.305 70.0038 67.5713C70.0005 66.9217 69.9236 66.2893 69.8391 65.6015C69.8006 65.2934 69.7616 64.9782 69.7291 64.6518C69.7106 64.4728 69.5996 64.3136 69.4386 64.2362C69.2799 64.1598 69.0881 64.1652 68.9277 64.2614C68.8307 64.3217 68.7478 64.3706 68.6725 64.4141C68.5268 64.5002 68.4157 64.5674 68.3106 64.6427C65.8638 66.3834 63.7057 68.5505 61.8955 71.0823C58.9415 75.2203 57.2235 79.8992 56.7607 85.0466C56.7147 84.4728 56.6681 83.899 56.6215 83.3252L56.6052 83.1171C56.4237 80.8677 56.2363 78.5414 56.0835 76.2538C56.045 75.6746 55.9329 75.1111 55.8245 74.5658C55.6154 73.5177 55.4176 72.5277 55.734 71.4904C55.8061 71.2559 55.8667 71.0199 55.9274 70.7843C56.077 70.2009 56.7992 69.3023 57.9083 68.3198L57.95 68.2827C58.3591 67.9386 60.4602 66.0306 61.6522 62.2567C62.8621 58.4225 62.7705 54.4163 62.7039 51.4909L62.7023 51.4129C62.6134 47.3916 62.1756 44.3614 61.2827 41.5861C61.1673 41.2312 61.0302 40.8811 60.885 40.5133C60.8097 40.3218 60.7328 40.1239 60.6537 39.9169C60.5887 39.7416 60.4326 39.6142 60.25 39.584L60.1606 39.576C60.0024 39.576 59.8545 39.6464 59.7543 39.768L58.8868 40.8171C54.7278 45.8515 52.6847 51.756 52.8125 58.3671C52.8347 59.5314 52.9225 60.7257 53.078 61.9588C52.021 58.3381 50.7813 54.8137 49.3715 51.4232C49.3422 51.349 49.3232 51.257 49.3211 51.179L49.3113 50.7155C49.2967 50.0465 49.2815 49.3544 49.3103 48.6736C49.3146 48.5607 49.3883 48.358 49.5416 48.1585C49.7594 47.8729 50.0011 47.5938 50.2514 47.3035C50.6778 46.8109 51.1183 46.3022 51.4672 45.7214C52.5909 43.8532 53.1187 41.6463 53.1273 38.7753C53.1425 35.3955 52.6175 31.8388 51.4732 27.5815C50.8479 25.2589 49.9041 22.2416 48.1464 19.5061C48.0272 19.3221 47.8939 19.149 47.752 18.9656C47.6881 18.8844 47.6209 18.7978 47.5526 18.7048C47.4529 18.572 47.3153 18.4945 47.0931 18.4945C46.916 18.5075 46.7578 18.6075 46.6695 18.7629C44.4632 22.7148 43.3644 26.9367 43.3124 31.67C43.2679 35.6165 43.8889 39.0124 44.6674 41.6963C42.686 38.1036 40.4841 34.6324 38.0974 31.3398L38.0427 31.265C37.9885 31.1935 37.9657 31.1586 37.9695 31.1833C37.8195 30.118 37.7154 29.2657 37.6434 28.5236C37.645 28.5123 37.6591 28.4499 37.7707 28.2649C37.9284 27.9982 38.1012 27.7369 38.2849 27.4605C38.6533 26.9044 39.0337 26.329 39.2775 25.6848C40.0133 23.7403 40.1785 21.535 39.7814 18.9452C38.9096 13.2133 36.3636 8.05196 31.9998 3.16542C31.5507 2.6637 31.0544 2.22006 30.5293 1.75114L30.3841 1.62046C30.1788 1.43602 29.968 1.24727 29.7551 1.04776C29.6196 0.919775 29.4257 0.871916 29.2377 0.926767C29.0599 0.982693 28.9229 1.12896 28.8806 1.31072L28.7852 1.72586C28.7202 2.00119 28.6698 2.21844 28.6325 2.43677C28.0451 5.91602 28.0879 9.64263 28.7641 13.8306C29.4349 17.9842 30.7715 21.5667 32.8223 24.6787C29.747 21.0822 26.7556 18.0622 23.6293 15.3858C23.6152 15.3675 23.5947 15.3121 23.593 15.2982C23.8374 13.209 23.3183 11.2408 22.005 9.28126C20.2804 6.70597 17.8839 4.74318 14.8823 3.44828C13.0862 2.67499 11.225 1.99044 9.40292 1.31986C8.53006 0.998287 7.65719 0.677788 6.75832 0.334165C5.85512 -0.0223638 5.4688 -0.0858186 5.25912 0.106696C4.9893 0.356212 5.05433 0.569163 5.1719 0.956343L5.20982 1.08271C6.31132 4.76523 7.77314 7.67769 9.67978 9.98625C13.1799 14.2286 17.2733 16.3839 22.1876 16.5742C22.3599 16.5845 22.4964 16.6318 22.5522 16.6748C23.2441 17.1889 23.7534 17.6003 24.2037 18.0079C25.6275 19.2996 27.0298 20.6757 28.4016 22.1249C26.3612 20.8666 23.8672 20.2987 21.0584 20.4396C19.5213 20.5165 17.9955 20.7402 16.5202 20.9564L16.4638 20.965C16.0277 21.0284 15.5937 21.0913 15.1608 21.1521C14.2126 21.2796 13.2568 21.4463 12.4127 21.5925C12.0708 21.6533 11.2543 21.8377 11.0663 22.2308C11.0013 22.3653 11.0067 22.5126 11.0804 22.6465C11.1454 22.7632 11.2169 22.8729 11.2949 22.9729C13.7315 26.1107 16.511 28.1773 19.7922 29.2899C23.793 30.6536 27.4676 30.5412 30.7694 28.9371C31.2743 28.6613 31.8833 28.5214 32.579 28.5214C33.104 28.5214 33.4979 28.6037 33.6285 28.6333C33.8241 28.6656 34.0896 28.7742 34.1438 28.8441C36.1973 31.5237 38.1462 34.3856 39.9661 37.3922C38.4285 35.908 36.4232 34.9072 33.6914 34.2555C31.2971 33.6892 28.8492 33.5677 26.4825 33.4494L25.6899 33.4096C24.9476 33.372 24.2053 33.3252 23.4408 33.2773L22.1589 33.1988C21.9931 33.1988 21.8354 33.2784 21.739 33.4107C21.6322 33.5532 21.6067 33.7382 21.6696 33.9043C21.7211 34.0431 21.8148 34.2877 21.863 34.3695C24.3592 38.5134 27.2904 41.3796 30.823 43.1327C34.2765 44.8449 37.3968 45.2976 40.5442 44.5507C40.9083 44.4636 41.3304 44.4174 41.7666 44.4174C43.1054 44.4174 44.0389 44.8228 44.2351 45.1982C45.9667 48.7436 47.512 52.4277 48.8448 56.1855C47.4469 54.2727 45.4921 52.7191 43.0171 51.5571C40.5583 50.4052 37.9982 49.3523 35.4794 48.316C34.3968 47.8719 33.3099 47.4261 32.2279 46.9701C32.067 46.9001 31.8768 46.9147 31.7268 47.0131C31.5794 47.1104 31.4916 47.2728 31.4916 47.4476C31.4916 47.7831 35.0838 57.6783 40.301 61.5775C42.4292 63.1682 45.0505 64.8046 48.3561 64.8815C49.3455 64.9014 50.3684 65.0401 51.141 65.9118C51.2592 66.0505 51.4157 66.1586 51.5864 66.2161C51.8503 66.3022 51.9229 66.4624 52.0529 67.0088C53.1235 71.47 53.9032 76.0683 54.3833 80.7376C54.2381 80.2638 54.0695 79.7852 53.8761 79.3007C52.7085 76.3619 50.7434 73.7904 47.6919 71.2076C46.119 69.8707 44.4719 68.5763 42.8789 67.3239L42.8031 67.2648C42.0776 66.6942 41.3537 66.1258 40.632 65.5504C40.483 65.4316 40.3378 65.309 40.1693 65.1659L39.7191 64.783C39.5614 64.6508 39.3268 64.6233 39.1426 64.7148C38.9535 64.8099 38.8402 65.0067 38.8549 65.217C38.8771 65.5327 38.8949 65.8311 38.9117 66.1177L38.9204 66.2516C38.9562 66.8416 38.9898 67.3981 39.0499 67.9477C39.6145 73.2989 41.2177 77.7665 43.9512 81.6055C45.6433 83.9786 48.0706 86.8792 51.8557 88.251C52.7768 88.5866 53.4448 89.0947 54.1606 90.0068C54.8357 90.8607 54.9614 91.641 54.9462 92.6229C54.8817 96.7362 54.5864 100.817 54.0658 104.813C53.9439 103.701 53.6859 102.556 53.2899 101.366C52.4701 98.9033 51.1925 96.5087 49.3834 94.0458C47.8219 91.9131 46.197 89.7729 44.6257 87.702L44.5212 87.5638C43.8981 86.7437 43.2755 85.9226 42.6692 85.1192C42.5554 84.9541 42.3913 84.8949 42.2965 84.8621C42.1621 84.7971 42.0017 84.7906 41.8592 84.8508C41.7194 84.91 41.6121 85.0267 41.565 85.1697L41.5466 85.2256C41.5206 85.3009 41.5 85.3676 41.4892 85.4343C40.4055 91.8475 41.0703 97.5934 43.521 103.002C44.7178 105.647 46.3232 108.641 49.1537 110.795C50.4459 111.779 51.4661 113.159 52.0264 114.68C52.145 115.007 52.1407 115.149 52.1271 115.204C50.9292 120.129 49.3644 124.879 47.4621 129.374C47.9519 127.005 47.9183 124.516 47.3592 121.938C46.5654 118.283 45.2011 114.742 43.9842 111.709L43.6196 110.801C43.0491 109.379 42.4747 107.947 41.8814 106.462C41.8061 106.272 41.6246 106.143 41.3824 106.131C41.1917 106.131 41.0162 106.239 40.9251 106.414L40.7339 106.771C40.6499 106.928 40.5713 107.073 40.5042 107.224C38.0562 112.706 37.2294 118.325 38.0481 123.926C38.6333 127.932 39.6248 130.799 41.2632 133.226C42.1112 134.48 42.9168 135.877 43.0631 137.595C43.0978 138.002 43.0816 138.282 42.899 138.601C40.8325 142.192 38.5157 145.582 35.9784 148.731C35.9881 148.714 35.9973 148.696 36.0071 148.679C37.8325 145.368 37.8877 141.788 37.7013 138.723C37.5404 136.095 37.237 133.47 36.945 130.933L36.9282 130.787C36.8106 129.77 36.6936 128.754 36.5868 127.736C36.5251 127.159 36.4562 126.582 36.3853 125.997L36.2915 125.204C36.2709 125.029 36.1631 124.877 36.0082 124.801C35.7199 124.651 35.2534 124.882 34.7495 125.474C31.2868 129.538 29.138 134.132 28.3621 139.127C27.5575 144.306 27.9937 148.738 29.6971 152.677C29.7426 152.782 29.7415 152.996 29.741 153.067L29.6494 155.333C29.6359 155.496 29.5492 155.68 29.4777 155.748C26.0198 159.053 22.213 161.927 18.1278 164.318C20.0615 162.583 21.4518 160.32 22.3528 157.451C23.3514 154.272 23.8639 150.964 24.3608 147.755L24.4041 147.47C24.5802 146.343 24.7639 145.218 24.9514 144.068L25.1632 142.768C25.1935 142.579 25.1182 142.39 24.9703 142.276C24.8235 142.16 24.6111 142.132 24.4421 142.204L24.2573 142.28C24.0601 142.36 23.8883 142.432 23.7263 142.514C16.0033 146.342 10.9195 155.271 11.6379 163.744C11.7506 165.071 11.6281 166.317 11.263 167.552C11.2288 167.664 11.1194 167.787 11.075 167.807C7.40688 169.342 3.91922 170.462 0.409894 171.231C0.22947 171.273 0.0864214 171.401 0.0279054 171.573C-0.0311523 171.747 0.00461616 171.936 0.124899 172.078C0.506336 172.526 0.83846 173.009 1.11153 173.514C1.22369 173.72 1.4908 173.826 1.69073 173.774C4.54989 173.127 7.33427 172.289 9.96911 171.281C10.182 171.196 10.3446 171.156 10.4968 171.18C11.0831 171.258 11.7024 171.377 12.3899 171.546C12.5319 171.581 12.6495 171.646 12.6516 171.64C14.1536 174.612 16.7348 176.505 20.5453 177.426C21.3743 177.623 22.2293 177.769 23.0864 177.858C23.9837 177.952 24.9844 178 26.0599 178C27.5499 178 28.6124 177.909 28.6254 177.908C31.9283 177.541 34.749 176.803 37.2473 175.652C38.2724 175.18 39.4406 174.545 40.3384 173.411C40.5101 173.194 40.4814 172.88 40.2728 172.698C37.7349 170.475 35.151 168.86 32.3721 167.761C28.2548 166.137 24.5044 165.697 20.8282 166.399C20.2788 166.505 19.7424 166.638 19.2211 166.792C22.66 164.751 25.9526 162.354 29.0621 159.622C29.1217 159.568 29.2198 159.521 29.2962 159.507C29.8049 159.423 30.4806 159.32 31.1719 159.271C31.2359 159.271 31.3171 159.301 31.3263 159.305C33.1999 161.386 35.6137 162.397 38.7059 162.397C38.8635 162.397 39.0217 162.394 39.1794 162.389C42.5414 162.281 45.9212 161.364 49.2268 159.662C51.6292 158.418 54.1335 156.97 56.1642 154.811C56.6144 154.33 57.0165 153.787 57.3714 153.308L57.406 153.261C57.5632 153.05 57.7219 152.837 57.885 152.627C57.9739 152.513 58.0112 152.367 57.9879 152.22C57.963 152.078 57.8801 151.951 57.7387 151.86C57.703 151.841 56.8431 151.383 56.058 151.081C50.8013 149.065 45.4943 148.859 40.4315 150.478C38.7741 151.007 37.2143 151.8 35.6955 152.897C38.5043 149.657 41.105 146.104 43.4662 142.282C43.4917 142.242 43.5589 142.133 43.5806 142.113C43.787 141.982 43.9983 141.858 44.2091 141.736C44.5867 141.516 44.9779 141.289 45.3453 141.018C45.6552 140.788 45.7424 140.782 46.0556 140.982C46.4988 141.268 47.014 141.416 47.4632 141.533C50.091 142.201 52.7399 141.868 55.6701 140.503C58.3466 139.257 60.4044 137.289 62.2304 135.347C64.8863 132.515 66.6218 129.961 67.6924 127.306C67.9172 126.749 68.0776 126.173 68.2445 125.571C68.3133 125.318 68.3837 125.065 68.4585 124.817C68.5403 124.55 68.3973 124.268 68.1318 124.175L67.9118 124.158C66.8287 124.158 57.1671 124.316 51.516 129.758C50.2866 130.942 49.1846 132.2 48.1784 133.578C50.4139 128.879 52.3097 123.927 53.8376 118.787L53.8599 118.711C53.8783 118.648 53.9059 118.553 53.9243 118.527L55.4024 116.513C55.4577 116.432 55.4642 116.432 55.5509 116.432C55.5893 116.432 55.6316 116.435 55.6798 116.438L55.9957 116.457C57.0956 116.524 57.743 116.515 58.2757 116.432C60.3801 116.102 62.2797 115.05 64.0823 113.216C68.2981 108.924 71.2001 103.57 72.9534 96.8497C73.1414 96.1296 73.194 95.4026 73.2503 94.6314C73.2752 94.2819 73.3029 93.9216 73.343 93.5495C73.3597 93.3709 73.2893 93.2005 73.1539 93.0892Z" fill="#092142"></path></svg>